<?xml version="1.0"?>
<!DOCTYPE svg PUBLIC "-//W3C//DTD SVG 1.0//EN" "http://www.w3.org/TR/2001/REC-SVG-20010904/DTD/svg10.dtd">
<svg xmlns="http://www.w3.org/2000/svg" xmlns:xlink="http://www.w3.org/1999/xlink" width="256px" height="256px">
<g>
<path fill-rule="evenodd" fill="#000000" d="M 88 68 C 90.2396 66.4688 92.4688 64.9063 95 64 C 97.5208 63.1042 100.604 63 103 63 C 106.635 63 109.115 63.8438 112 65 C 114.885 66.1667 117.969 68 120 70 C 122.031 72.0104 122.906 74.3333 124 77 C 125.083 79.6771 126 81.9375 126 85 C 126 88.1458 125.229 91.2292 124 94 C 122.771 96.7708 121.208 98.9271 119 101 C 116.781 103.083 114.063 104.792 111 106 C 107.938 107.198 104.688 108 101 108 C 97.2188 108 94.0729 107.281 91 106 C 87.9271 104.708 85.1667 103.198 83 101 C 80.8229 98.8021 79.1771 95.9375 78 93 C 76.8125 90.0625 76 87.3229 76 84 L 76 66 C 76 62.4063 76.6979 59.1563 78 56 C 79.3021 52.8542 80.6875 50.3438 83 48 C 85.3125 45.6667 88.8229 43.3438 92 42 C 95.1771 40.6667 98.2396 40 102 40 C 106.74 40 111.167 41.0938 115 43 C 118.833 44.9063 121.615 47.2708 124 51 L 125 53 L 114 58 L 114 57 C 112.729 55.3125 110.979 53.9479 109 53 C 107.01 52.0521 104.521 52 102 52 C 99.9375 52 97.7188 52.2813 96 53 C 94.2813 53.7188 93.2083 54.7396 92 56 C 90.7917 57.2604 89.6667 58.3333 89 60 C 88.3333 61.6667 88 64.125 88 66 C 88 66 88 68 88 68 z M 101 75 C 98.7083 75 96.2708 75.0833 94 76 C 91.7292 76.9271 89.9792 78.25 88 80 L 88 83 C 88 84.875 88.3958 87.3438 89 89 C 89.6042 90.6563 89.8854 91.7604 91 93 C 92.1042 94.2396 93.4479 95.2917 95 96 C 96.5417 96.7083 99.0833 97 101 97 C 102.833 97 104.49 96.5938 106 96 C 107.51 95.4167 108.917 95.0104 110 94 C 111.083 92.9896 111.396 91.3438 112 90 C 112.604 88.6563 113 87.5417 113 86 C 113 84.4896 112.573 83.3125 112 82 C 111.427 80.6875 111.031 78.9792 110 78 C 108.958 77.0208 107.448 76.5729 106 76 C 104.542 75.4271 102.729 75 101 75 z M 155 108 C 152.76 108 150.177 107.448 148 107 C 145.813 106.563 143.948 105.792 142 105 C 140.042 104.208 138.625 104.115 137 103 C 135.365 101.896 134.135 100.344 133 99 L 131 97 L 142 91 L 143 92 C 144.188 93.3125 146.052 95.0729 148 96 C 149.938 96.9271 152.188 97 155 97 C 156.719 97 158.542 96.5208 160 96 C 161.448 95.4792 162.927 94.9271 164 94 C 165.063 93.0729 165.385 92.2396 166 91 C 166.604 89.7604 167 88.4479 167 87 C 167 85.2604 166.708 83.3542 166 82 C 165.281 80.6563 164.24 79.8958 163 79 C 161.76 78.1042 160.625 77.4792 159 77 C 157.365 76.5313 155.792 76 154 76 L 147 76 L 147 65 L 149 65 C 151.385 65 153.063 64.6667 155 64 C 156.927 63.3333 158.635 62.1667 160 61 C 161.365 59.8438 163.208 58.5833 164 57 C 164.781 55.4167 164.844 53.8438 165 52 L 134 52 L 134 41 L 178 41 L 178 48 C 178 49.9271 178.302 52.0313 178 54 C 177.688 55.9792 176.76 58.1563 176 60 C 175.229 61.8542 174.271 63.4063 173 65 C 171.719 66.6042 169.938 67.8229 168 69 C 171.938 70.5625 174.979 73.0104 177 76 C 179.01 79 180 82.7292 180 87 C 180 89.7292 179.146 92.4479 178 95 C 176.844 97.5521 175.146 99.0208 173 101 C 170.844 102.979 168.083 104.802 165 106 C 161.906 107.188 158.906 108 155 108 z" />
<path fill-rule="evenodd" fill="#000000" d="M 98 208 C 95.7604 208 93.1771 207.448 91 207 C 88.8125 206.563 86.9479 205.792 85 205 C 83.0417 204.208 81.625 204.115 80 203 C 78.3646 201.896 77.1354 200.344 76 199 L 74 197 L 85 191 L 86 192 C 87.1875 193.313 89.0521 195.073 91 196 C 92.9375 196.927 95.1875 197 98 197 C 99.7188 197 101.542 196.521 103 196 C 104.448 195.479 105.927 194.927 107 194 C 108.063 193.073 108.385 192.24 109 191 C 109.604 189.76 110 188.448 110 187 C 110 185.26 109.708 183.354 109 182 C 108.281 180.656 107.24 179.896 106 179 C 104.76 178.104 103.625 177.479 102 177 C 100.365 176.531 98.7917 176 97 176 L 90 176 L 90 165 L 92 165 C 94.3854 165 96.0625 164.667 98 164 C 99.9271 163.333 101.635 162.167 103 161 C 104.365 159.844 106.208 158.583 107 157 C 107.781 155.417 107.844 153.844 108 152 L 77 152 L 77 141 L 121 141 L 121 148 C 121 149.927 121.302 152.031 121 154 C 120.688 155.979 119.76 158.156 119 160 C 118.229 161.854 117.271 163.406 116 165 C 114.719 166.604 112.938 167.823 111 169 C 114.938 170.563 117.979 173.01 120 176 C 122.01 179 123 182.729 123 187 C 123 189.729 122.146 192.448 121 195 C 119.844 197.552 118.146 199.021 116 201 C 113.844 202.979 111.083 204.802 108 206 C 104.906 207.188 101.906 208 98 208 z M 133 141 L 181 141 L 181 153 L 146 153 L 146 170 L 176 170 L 176 182 L 146 182 L 146 207 L 133 207 C 133 207 133 141 133 141 z" />
<polyline fill="none" stroke-width="1" stroke="#000000" stroke-linecap="round" stroke-linejoin="bevel" points="14.5,126.5 242.5,126.5" />
</g>
</svg>
