<svg version="1.1" xmlns="http://www.w3.org/2000/svg" xmlns:xlink="http://www.w3.org/1999/xlink" width="48" height="48"><defs><linearGradient x1="11.08449" y1="14.48332" x2="57.94747" y2="54.54865" gradientUnits="userSpaceOnUse" id="color-1"><stop offset="0" stop-color="#000000" stop-opacity="0.16"></stop><stop offset="1" stop-color="#000000" stop-opacity="0"></stop></linearGradient><filter id="dropshadow-base"><feColorMatrix type="matrix" values="0 0 0 0 0  0 0 0 0 0  0 0 0 0 0  0 0 0 .8 0"></feColorMatrix> <feOffset dx="0" dy="1"></feOffset> <feGaussianBlur stdDeviation="1"></feGaussianBlur> <feComposite in="SourceGraphic"></feComposite></filter><filter id="dropshadow-banner" x="-10%" y="-10%" width="120%" height="130%"><feColorMatrix type="matrix" values="0 0 0 0 0  0 0 0 0 0  0 0 0 0 0  0 0 0 .4 0"></feColorMatrix> <feOffset dx="0" dy="1"></feOffset> <feGaussianBlur stdDeviation="0.5"></feGaussianBlur> <feComposite in="SourceGraphic"></feComposite></filter></defs><g fill="none" fill-rule="none" stroke="none" stroke-width="none" stroke-linecap="none" stroke-linejoin="none" stroke-miterlimit="10" stroke-dasharray="" stroke-dashoffset="0" font-family="none" font-weight="none" font-size="none" text-anchor="none" style="mix-blend-mode: normal"><path d="M7,43c-1.10457,0 -2,-0.89543 -2,-2v-34c0,-1.10457 0.89543,-2 2,-2h34c1.10457,0 2,0.89543 2,2v34c0,1.10457 -0.89543,2 -2,2z" id="base 1 13" fill="#beb32b" fill-rule="nonzero" stroke="none" stroke-width="1" stroke-linecap="butt" stroke-linejoin="miter"></path><path d="M18.8542,21.40338c-0.00303,-0.00303 -0.00606,-0.00608 -0.00907,-0.00913c-0.24665,-0.24901 -0.43311,-0.57355 -0.56647,-0.90635c-0.13454,-0.33281 -0.22659,-0.64318 -0.22659,-1.01964v-2.03929c0,-0.40715 0.07907,-0.77534 0.22659,-1.13294c0.14752,-0.3564 0.30448,-0.64082 0.56647,-0.90635c0.26199,-0.26435 0.6597,-0.52752 1.01964,-0.67977c0.35994,-0.15106 0.7069,-0.22659 1.13294,-0.22659c0.53701,0 1.03856,0.12392 1.47282,0.33988c0.26379,0.13119 0.48364,0.28154 0.67616,0.47406l2.94922,2.94922v-0.93086h0.00003l-1.47283,-1.47283v-1.24623h4.98494l13.39196,13.39196v13.01148c0,1.10457 -0.89543,2 -2,2l-12.47781,0l-10.22096,-10.22096c0.06206,0.06206 0.12929,0.12074 0.204,0.17118l-0.67977,-0.67977l0.80639,-0.43985l-7.54736,-7.54736h10.64957z" fill="url(#color-1)" fill-rule="nonzero" stroke="none" stroke-width="1" stroke-linecap="butt" stroke-linejoin="miter"></path><path d="M19.41159,17.65554c0.25373,-0.17348 0.50629,-0.3505 0.79306,-0.45318c0.28559,-0.10149 0.6349,-0.11329 0.90635,-0.11329c0.41182,0 0.69279,0.0956 1.01965,0.22659c0.32685,0.13218 0.67625,0.33988 0.90635,0.56647c0.2301,0.22777 0.32923,0.49094 0.45318,0.79306c0.1227,0.3033 0.22659,0.55939 0.22659,0.90635c0,0.3564 -0.08735,0.70573 -0.22659,1.01965c-0.13924,0.31391 -0.31632,0.55821 -0.56647,0.79306c-0.2514,0.23599 -0.55933,0.42961 -0.90635,0.56647c-0.34691,0.13573 -0.71511,0.22659 -1.13294,0.22659c-0.42839,0 -0.7848,-0.08146 -1.13294,-0.22659c-0.34814,-0.14638 -0.66088,-0.31745 -0.90635,-0.56647c-0.24665,-0.24901 -0.43311,-0.57355 -0.56647,-0.90635c-0.13454,-0.3328 -0.22659,-0.64318 -0.22659,-1.01965v-2.03929c0,-0.40714 0.07907,-0.77535 0.22659,-1.13294c0.14752,-0.3564 0.30448,-0.64081 0.56647,-0.90635c0.26199,-0.26435 0.6597,-0.52752 1.01965,-0.67976c0.35995,-0.15105 0.70691,-0.22659 1.13294,-0.22659c0.53701,0 1.03857,0.12392 1.47282,0.33988c0.43426,0.21597 0.74944,0.48386 1.01965,0.90635l0.11329,0.22659l-1.24623,0.56647v-0.11329c-0.144,-0.19118 -0.34226,-0.34578 -0.56647,-0.45318c-0.22545,-0.10739 -0.50744,-0.11329 -0.79306,-0.11329c-0.23367,0 -0.48503,0.03187 -0.67976,0.11329c-0.19472,0.08144 -0.31628,0.19709 -0.45318,0.33988c-0.13689,0.1428 -0.26435,0.26435 -0.33988,0.45318c-0.07553,0.18883 -0.11329,0.46734 -0.11329,0.67976zM20.88442,18.4486c-0.25964,0 -0.53579,0.00944 -0.79306,0.11329c-0.25727,0.10503 -0.45553,0.25491 -0.67976,0.45318v0.33988c0,0.21243 0.04484,0.49213 0.11329,0.67976c0.06845,0.18765 0.10031,0.31274 0.22659,0.45318c0.1251,0.14044 0.27733,0.25964 0.45318,0.33988c0.17467,0.08025 0.46261,0.11329 0.67976,0.11329c0.20767,0 0.3954,-0.04602 0.56647,-0.11329c0.17107,-0.06608 0.33048,-0.11212 0.45318,-0.22659c0.1227,-0.11447 0.15816,-0.30093 0.22659,-0.45318c0.06843,-0.15223 0.11329,-0.27851 0.11329,-0.45318c0,-0.17112 -0.04838,-0.30448 -0.11329,-0.45318c-0.06492,-0.1487 -0.10978,-0.34224 -0.22659,-0.45318c-0.11805,-0.11094 -0.28913,-0.16168 -0.45318,-0.22659c-0.16518,-0.06491 -0.37058,-0.11329 -0.56647,-0.11329zM27.00229,22.1873c-0.25378,0 -0.54642,-0.06254 -0.79306,-0.11329c-0.24777,-0.04951 -0.45907,-0.13686 -0.67976,-0.22659c-0.22183,-0.08973 -0.38237,-0.10027 -0.56647,-0.22659c-0.18524,-0.12508 -0.32459,-0.30091 -0.45318,-0.45318l-0.22659,-0.22659l1.24623,-0.67976l0.11329,0.11329c0.13459,0.1487 0.34577,0.34814 0.56647,0.45318c0.21956,0.10503 0.47448,0.11329 0.79306,0.11329c0.19475,0 0.40129,-0.05429 0.56647,-0.11329c0.16405,-0.059 0.33161,-0.12155 0.45318,-0.22659c0.12043,-0.10503 0.15691,-0.19944 0.22659,-0.33988c0.06843,-0.14044 0.11329,-0.28914 0.11329,-0.45318c0,-0.19709 -0.03308,-0.41305 -0.11329,-0.56647c-0.08146,-0.15223 -0.1994,-0.23839 -0.33988,-0.33988c-0.14048,-0.10149 -0.26907,-0.1723 -0.45318,-0.22659c-0.18524,-0.0531 -0.36345,-0.11329 -0.56647,-0.11329h-0.79306v-1.24623h0.22659c0.27021,0 0.46031,-0.03776 0.67976,-0.11329c0.21832,-0.07553 0.41182,-0.2077 0.56647,-0.33988c0.15465,-0.13099 0.36345,-0.2738 0.45318,-0.45318c0.08848,-0.17938 0.09562,-0.35758 0.11329,-0.56647h-3.51211v-1.24623h4.98493v0.79306c0,0.21833 0.03421,0.45672 0,0.67976c-0.03535,0.22423 -0.14048,0.47088 -0.22659,0.67976c-0.08735,0.21007 -0.19589,0.38591 -0.33988,0.56647c-0.14513,0.18175 -0.34691,0.31982 -0.56647,0.45318c0.44615,0.17702 0.79068,0.45435 1.01965,0.79306c0.22772,0.33988 0.33988,0.76238 0.33988,1.24623c0,0.3092 -0.09675,0.61721 -0.22659,0.90635c-0.13097,0.28914 -0.32334,0.45553 -0.56647,0.67976c-0.24426,0.22421 -0.55707,0.43074 -0.90635,0.56647c-0.35053,0.13459 -0.69041,0.22659 -1.13294,0.22659zM20.54453,33.51669c-0.25373,0 -0.54641,-0.06254 -0.79306,-0.11329c-0.24783,-0.04951 -0.45908,-0.13686 -0.67976,-0.22659c-0.22186,-0.08973 -0.38237,-0.10027 -0.56647,-0.22659c-0.18528,-0.12508 -0.32454,-0.30091 -0.45318,-0.45318l-0.22659,-0.22659l1.24623,-0.67976l0.11329,0.11329c0.13454,0.14875 0.34578,0.34815 0.56647,0.45318c0.21951,0.10502 0.47442,0.11329 0.79306,0.11329c0.19473,0 0.40129,-0.05427 0.56647,-0.11329c0.16405,-0.05903 0.33161,-0.12156 0.45318,-0.22659c0.12043,-0.10502 0.15691,-0.1994 0.22659,-0.33988c0.06843,-0.14048 0.11329,-0.28913 0.11329,-0.45318c0,-0.19713 -0.03308,-0.41307 -0.11329,-0.56647c-0.08146,-0.15227 -0.1994,-0.23837 -0.33988,-0.33988c-0.14048,-0.10151 -0.26907,-0.17232 -0.45318,-0.22659c-0.18524,-0.05313 -0.36348,-0.11329 -0.56647,-0.11329h-0.79306v-1.24623h0.22659c0.27025,0 0.46026,-0.03773 0.67976,-0.11329c0.21833,-0.07557 0.41182,-0.20767 0.56647,-0.33988c0.15465,-0.13097 0.36345,-0.27383 0.45318,-0.45318c0.08848,-0.17934 0.09562,-0.35756 0.11329,-0.56647h-3.51211v-1.24623h4.98493v0.79306c0,0.21832 0.03421,0.45669 0,0.67976c-0.03535,0.22421 -0.14048,0.47085 -0.22659,0.67976c-0.08735,0.21005 -0.19589,0.38588 -0.33988,0.56647c-0.14513,0.18172 -0.34691,0.31983 -0.56647,0.45318c0.44615,0.17708 0.79068,0.45431 1.01965,0.79306c0.22772,0.33988 0.33988,0.76236 0.33988,1.24623c0,0.30918 -0.09675,0.61723 -0.22659,0.90635c-0.13097,0.28913 -0.32334,0.45556 -0.56647,0.67976c-0.24426,0.22421 -0.55707,0.43074 -0.90635,0.56647c-0.35053,0.13459 -0.69041,0.22659 -1.13294,0.22659zM24.50982,25.926h5.43811v1.35953h-3.96529v1.926h3.39882v1.35953h-3.39882v2.83235h-1.47282zM11.08449,24.28323h25.83102z" fill="none" fill-rule="evenodd" stroke="none" stroke-width="0" stroke-linecap="butt" stroke-linejoin="miter"></path><g stroke-width="1"><g><path d="M19.41159,17.65554c0.25373,-0.17348 0.50629,-0.3505 0.79306,-0.45318c0.28559,-0.10149 0.6349,-0.11329 0.90635,-0.11329c0.41182,0 0.69279,0.0956 1.01965,0.22659c0.32685,0.13218 0.67625,0.33988 0.90635,0.56647c0.2301,0.22777 0.32923,0.49094 0.45318,0.79306c0.1227,0.3033 0.22659,0.55939 0.22659,0.90635c0,0.3564 -0.08735,0.70573 -0.22659,1.01965c-0.13924,0.31391 -0.31632,0.55821 -0.56647,0.79306c-0.2514,0.23599 -0.55933,0.42961 -0.90635,0.56647c-0.34691,0.13573 -0.71511,0.22659 -1.13294,0.22659c-0.42839,0 -0.7848,-0.08146 -1.13294,-0.22659c-0.34814,-0.14638 -0.66088,-0.31745 -0.90635,-0.56647c-0.24665,-0.24901 -0.43311,-0.57355 -0.56647,-0.90635c-0.13454,-0.3328 -0.22659,-0.64318 -0.22659,-1.01965v-2.03929c0,-0.40714 0.07907,-0.77535 0.22659,-1.13294c0.14752,-0.3564 0.30448,-0.64081 0.56647,-0.90635c0.26199,-0.26435 0.6597,-0.52752 1.01965,-0.67976c0.35995,-0.15105 0.70691,-0.22659 1.13294,-0.22659c0.53701,0 1.03857,0.12392 1.47282,0.33988c0.43426,0.21597 0.74944,0.48386 1.01965,0.90635l0.11329,0.22659l-1.24623,0.56647v-0.11329c-0.144,-0.19118 -0.34226,-0.34578 -0.56647,-0.45318c-0.22545,-0.10739 -0.50744,-0.11329 -0.79306,-0.11329c-0.23367,0 -0.48503,0.03187 -0.67976,0.11329c-0.19472,0.08144 -0.31628,0.19709 -0.45318,0.33988c-0.13689,0.1428 -0.26435,0.26435 -0.33988,0.45318c-0.07553,0.18883 -0.11329,0.46734 -0.11329,0.67976zM20.88442,18.4486c-0.25964,0 -0.53579,0.00944 -0.79306,0.11329c-0.25727,0.10503 -0.45553,0.25491 -0.67976,0.45318v0.33988c0,0.21243 0.04484,0.49213 0.11329,0.67976c0.06845,0.18765 0.10031,0.31274 0.22659,0.45318c0.1251,0.14044 0.27733,0.25964 0.45318,0.33988c0.17467,0.08025 0.46261,0.11329 0.67976,0.11329c0.20767,0 0.3954,-0.04602 0.56647,-0.11329c0.17107,-0.06608 0.33048,-0.11212 0.45318,-0.22659c0.1227,-0.11447 0.15816,-0.30093 0.22659,-0.45318c0.06843,-0.15223 0.11329,-0.27851 0.11329,-0.45318c0,-0.17112 -0.04838,-0.30448 -0.11329,-0.45318c-0.06492,-0.1487 -0.10978,-0.34224 -0.22659,-0.45318c-0.11805,-0.11094 -0.28913,-0.16168 -0.45318,-0.22659c-0.16518,-0.06491 -0.37058,-0.11329 -0.56647,-0.11329zM27.00229,22.1873c-0.25378,0 -0.54642,-0.06254 -0.79306,-0.11329c-0.24777,-0.04951 -0.45907,-0.13686 -0.67976,-0.22659c-0.22183,-0.08973 -0.38237,-0.10027 -0.56647,-0.22659c-0.18524,-0.12508 -0.32459,-0.30091 -0.45318,-0.45318l-0.22659,-0.22659l1.24623,-0.67976l0.11329,0.11329c0.13459,0.1487 0.34577,0.34814 0.56647,0.45318c0.21956,0.10503 0.47448,0.11329 0.79306,0.11329c0.19475,0 0.40129,-0.05429 0.56647,-0.11329c0.16405,-0.059 0.33161,-0.12155 0.45318,-0.22659c0.12043,-0.10503 0.15691,-0.19944 0.22659,-0.33988c0.06843,-0.14044 0.11329,-0.28914 0.11329,-0.45318c0,-0.19709 -0.03308,-0.41305 -0.11329,-0.56647c-0.08146,-0.15223 -0.1994,-0.23839 -0.33988,-0.33988c-0.14048,-0.10149 -0.26907,-0.1723 -0.45318,-0.22659c-0.18524,-0.0531 -0.36345,-0.11329 -0.56647,-0.11329h-0.79306v-1.24623h0.22659c0.27021,0 0.46031,-0.03776 0.67976,-0.11329c0.21832,-0.07553 0.41182,-0.2077 0.56647,-0.33988c0.15465,-0.13099 0.36345,-0.2738 0.45318,-0.45318c0.08848,-0.17938 0.09562,-0.35758 0.11329,-0.56647h-3.51211v-1.24623h4.98493v0.79306c0,0.21833 0.03421,0.45672 0,0.67976c-0.03535,0.22423 -0.14048,0.47088 -0.22659,0.67976c-0.08735,0.21007 -0.19589,0.38591 -0.33988,0.56647c-0.14513,0.18175 -0.34691,0.31982 -0.56647,0.45318c0.44615,0.17702 0.79068,0.45435 1.01965,0.79306c0.22772,0.33988 0.33988,0.76238 0.33988,1.24623c0,0.3092 -0.09675,0.61721 -0.22659,0.90635c-0.13097,0.28914 -0.32334,0.45553 -0.56647,0.67976c-0.24426,0.22421 -0.55707,0.43074 -0.90635,0.56647c-0.35053,0.13459 -0.69041,0.22659 -1.13294,0.22659z" fill="#000000" fill-rule="evenodd" stroke="none" stroke-linecap="butt" stroke-linejoin="miter"></path><path d="M20.54453,33.51669c-0.25373,0 -0.54641,-0.06254 -0.79306,-0.11329c-0.24783,-0.04951 -0.45908,-0.13686 -0.67976,-0.22659c-0.22186,-0.08973 -0.38237,-0.10027 -0.56647,-0.22659c-0.18528,-0.12508 -0.32454,-0.30091 -0.45318,-0.45318l-0.22659,-0.22659l1.24623,-0.67976l0.11329,0.11329c0.13454,0.14875 0.34578,0.34815 0.56647,0.45318c0.21951,0.10502 0.47442,0.11329 0.79306,0.11329c0.19473,0 0.40129,-0.05427 0.56647,-0.11329c0.16405,-0.05903 0.33161,-0.12156 0.45318,-0.22659c0.12043,-0.10502 0.15691,-0.1994 0.22659,-0.33988c0.06843,-0.14048 0.11329,-0.28913 0.11329,-0.45318c0,-0.19713 -0.03308,-0.41307 -0.11329,-0.56647c-0.08146,-0.15227 -0.1994,-0.23837 -0.33988,-0.33988c-0.14048,-0.10151 -0.26907,-0.17232 -0.45318,-0.22659c-0.18524,-0.05313 -0.36348,-0.11329 -0.56647,-0.11329h-0.79306v-1.24623h0.22659c0.27025,0 0.46026,-0.03773 0.67976,-0.11329c0.21833,-0.07557 0.41182,-0.20767 0.56647,-0.33988c0.15465,-0.13097 0.36345,-0.27383 0.45318,-0.45318c0.08848,-0.17934 0.09562,-0.35756 0.11329,-0.56647h-3.51211v-1.24623h4.98493v0.79306c0,0.21832 0.03421,0.45669 0,0.67976c-0.03535,0.22421 -0.14048,0.47085 -0.22659,0.67976c-0.08735,0.21005 -0.19589,0.38588 -0.33988,0.56647c-0.14513,0.18172 -0.34691,0.31983 -0.56647,0.45318c0.44615,0.17708 0.79068,0.45431 1.01965,0.79306c0.22772,0.33988 0.33988,0.76236 0.33988,1.24623c0,0.30918 -0.09675,0.61723 -0.22659,0.90635c-0.13097,0.28913 -0.32334,0.45556 -0.56647,0.67976c-0.24426,0.22421 -0.55707,0.43074 -0.90635,0.56647c-0.35053,0.13459 -0.69041,0.22659 -1.13294,0.22659zM24.50982,25.926h5.43811v1.35953h-3.96529v1.926h3.39882v1.35953h-3.39882v2.83235h-1.47282z" fill="#000000" fill-rule="evenodd" stroke="none" stroke-linecap="butt" stroke-linejoin="miter"></path><path d="M11.08449,24.28323h25.83102" fill="none" fill-rule="nonzero" stroke="#000000" stroke-linecap="round" stroke-linejoin="bevel"></path></g></g><path d="M2,24c0,-12.15026 9.84974,-22 22,-22c12.15026,0 22,9.84974 22,22c0,12.15026 -9.84974,22 -22,22c-12.15026,0 -22,-9.84974 -22,-22z" id="base 1 9 1" fill="none" fill-rule="nonzero" stroke="none" stroke-width="1" stroke-linecap="butt" stroke-linejoin="miter"></path><path d="M2,24c0,-12.15026 9.84974,-22 22,-22c12.15026,0 22,9.84974 22,22c0,12.15026 -9.84974,22 -22,22c-12.15026,0 -22,-9.84974 -22,-22z" id="base 1 5 1" fill="none" fill-rule="nonzero" stroke="none" stroke-width="1" stroke-linecap="butt" stroke-linejoin="miter"></path><path d="M2,24c0,-12.15026 9.84974,-22 22,-22c12.15026,0 22,9.84974 22,22c0,12.15026 -9.84974,22 -22,22c-12.15026,0 -22,-9.84974 -22,-22z" id="base 1 1 1" fill="none" fill-rule="nonzero" stroke="none" stroke-width="1" stroke-linecap="butt" stroke-linejoin="miter"></path><g fill="#000000" fill-rule="nonzero" stroke="none" stroke-width="1" stroke-linecap="butt" stroke-linejoin="miter" font-family="Roboto, sans-serif" font-weight="400" font-size="14" text-anchor="start"><g></g></g><rect x="2" y="2" width="44" height="22" fill="none" fill-rule="nonzero" stroke="none" stroke-width="1" stroke-linecap="butt" stroke-linejoin="miter"></rect><path d="M2,24v-22h44v22z" fill="none" fill-rule="nonzero" stroke="none" stroke-width="1" stroke-linecap="butt" stroke-linejoin="miter"></path><path d="M2,24v-22h44v22z" fill="none" fill-rule="nonzero" stroke="none" stroke-width="1" stroke-linecap="butt" stroke-linejoin="miter"></path><path d="M2,24v-22h44v22z" fill="none" fill-rule="nonzero" stroke="none" stroke-width="1" stroke-linecap="butt" stroke-linejoin="miter"></path><path d="M2,24v-22h44v22z" fill="none" fill-rule="nonzero" stroke="none" stroke-width="1" stroke-linecap="butt" stroke-linejoin="miter"></path><g fill="#000000" fill-rule="nonzero" stroke="none" stroke-width="1" stroke-linecap="butt" stroke-linejoin="miter" font-family="Roboto, sans-serif" font-weight="400" font-size="14" text-anchor="start"><g></g></g><rect x="2" y="2" width="44" height="22" fill="none" fill-rule="nonzero" stroke="none" stroke-width="1" stroke-linecap="butt" stroke-linejoin="miter"></rect><path d="M2,24v-22h44v22z" fill="none" fill-rule="nonzero" stroke="none" stroke-width="1" stroke-linecap="butt" stroke-linejoin="miter"></path><path d="M2,24v-22h44v22z" fill="none" fill-rule="nonzero" stroke="none" stroke-width="1" stroke-linecap="butt" stroke-linejoin="miter"></path><path d="M2,24v-22h44v22z" fill="none" fill-rule="nonzero" stroke="none" stroke-width="1" stroke-linecap="butt" stroke-linejoin="miter"></path><path d="M2,24v-22h44v22z" fill="none" fill-rule="nonzero" stroke="none" stroke-width="1" stroke-linecap="butt" stroke-linejoin="miter"></path><g fill="#000000" fill-rule="nonzero" stroke="none" stroke-width="1" stroke-linecap="butt" stroke-linejoin="miter" font-family="Roboto, sans-serif" font-weight="400" font-size="14" text-anchor="start"><g></g></g><rect x="2" y="2" width="44" height="22" fill="none" fill-rule="nonzero" stroke="none" stroke-width="1" stroke-linecap="butt" stroke-linejoin="miter"></rect><path d="M2,24v-22h44v22z" fill="none" fill-rule="nonzero" stroke="none" stroke-width="1" stroke-linecap="butt" stroke-linejoin="miter"></path><path d="M2,24v-22h44v22z" fill="none" fill-rule="nonzero" stroke="none" stroke-width="1" stroke-linecap="butt" stroke-linejoin="miter"></path><path d="M2,24v-22h44v22z" fill="none" fill-rule="nonzero" stroke="none" stroke-width="1" stroke-linecap="butt" stroke-linejoin="miter"></path><path d="M2,24v-22h44v22z" fill="none" fill-rule="nonzero" stroke="none" stroke-width="1" stroke-linecap="butt" stroke-linejoin="miter"></path></g></svg>